<svg xmlns="http://www.w3.org/2000/svg" viewBox="0 0 101.45 30.4"><defs><style>.cls-1{fill:#f9debf;}</style></defs><g id="Layer_2" data-name="Layer 2"><g id="artwork"><path class="cls-1" d="M25.39,11.9h-.28A10.86,10.86,0,0,0,19,6.32V3.71a3.71,3.71,0,1,0-7.41,0V6.32A10.86,10.86,0,0,0,5.54,11.9H5.26A5.26,5.26,0,0,0,0,17.15a.61.61,0,0,0,.61.61h4a10.8,10.8,0,0,0,2.84,6.09,5.21,5.21,0,0,0-.7,3.07,5.31,5.31,0,0,0,1.52,3.31.64.64,0,0,0,.87,0l3.33-3.34a11,11,0,0,0,5.83,0l3.36,3.37a.65.65,0,0,0,.43.17.63.63,0,0,0,.43-.17,5.24,5.24,0,0,0,.77-6.46,10.84,10.84,0,0,0,2.77-6h4a.61.61,0,0,0,.61-.61A5.26,5.26,0,0,0,25.39,11.9ZM4.52,16.47v.07H1.27a4,4,0,0,1,3.78-3.42A10.93,10.93,0,0,0,4.52,16.47ZM12.84,3.71a2.49,2.49,0,1,1,5,0V6a10.79,10.79,0,0,0-5,0ZM7.21,21.56a9.55,9.55,0,0,1,.07-10.29l1.36,1.36a.58.58,0,0,0,.43.18.62.62,0,0,0,.43-1.05L8,10.28a9.57,9.57,0,0,1,14.61,0l-2.57,2.57-4.12-2.38V9.78a.62.62,0,0,0-1.23,0v.69l-4.58,2.65a.61.61,0,0,0-.31.53v5.29ZM8.73,28.9a4,4,0,0,1-.37-4.18,10.86,10.86,0,0,0,2.82,1.73Zm6-2.86a9.6,9.6,0,0,1-6.85-3.48L10.47,20l4.31,2.49ZM11,18.94V14l4.29-2.47L19.61,14v4.94l-4.28,2.48ZM16,26V22.44l4.14-2.39,2.55,2.54A9.58,9.58,0,0,1,16,26Zm6.05,2.87-2.49-2.49a11,11,0,0,0,2.82-1.76A4,4,0,0,1,22.05,28.9Zm1.37-7.31L20.83,19v-5.2l2.54-2.54a9.55,9.55,0,0,1,.05,10.32Zm2.71-5.05v-.07a10.93,10.93,0,0,0-.53-3.35,4,4,0,0,1,3.78,3.42Z"/><path class="cls-1" d="M15.33,7.37a.62.62,0,0,0-.62.61v.13a.62.62,0,0,0,1.23,0V8A.62.62,0,0,0,15.33,7.37Z"/><path class="cls-1" d="M43.68,11c.56,0,1.76.23,1.76,1v.44h-.63v-.28c0-.42-.72-.61-1.13-.61a1.89,1.89,0,0,0-1.92,2,1.9,1.9,0,0,0,1.94,2,2.18,2.18,0,0,0,1.59-.7l.32.51a2.63,2.63,0,0,1-1.94.8,2.5,2.5,0,0,1-2.6-2.59A2.53,2.53,0,0,1,43.68,11Z"/><path class="cls-1" d="M50.84,11a2.59,2.59,0,1,1-2.61,2.56A2.57,2.57,0,0,1,50.84,11Zm0,4.58a2,2,0,0,0,1.92-2,1.93,1.93,0,1,0-3.85,0A2,2,0,0,0,50.85,15.54Z"/><path class="cls-1" d="M56.67,11.87a.2.2,0,0,0-.22-.22H56v-.58h.69c.41,0,.6.18.6.56v.22a3.24,3.24,0,0,1,0,.36h0a2.1,2.1,0,0,1,2-1.25c1.23,0,1.66.69,1.66,1.92v2.35c0,.15.08.21.22.21h.41V16h-.7c-.42,0-.6-.17-.6-.6V13.05c0-.78-.12-1.46-1.07-1.46A1.88,1.88,0,0,0,57.42,13a2.46,2.46,0,0,0-.08.67V16h-.67Z"/><path class="cls-1" d="M64.43,14.81a2,2,0,0,0,1.53.75c.55,0,1-.26,1-.79,0-1.08-2.78-.88-2.78-2.48C64.22,11.4,65,11,66,11c.5,0,1.5.19,1.5.89v.42h-.63V12c0-.37-.53-.5-.85-.5-.69,0-1.11.23-1.11.71,0,1.12,2.78.86,2.78,2.5,0,.83-.75,1.39-1.73,1.39a2.38,2.38,0,0,1-1.9-.86Z"/><path class="cls-1" d="M73.06,11c.56,0,1.76.23,1.76,1v.44h-.63v-.28c0-.42-.72-.61-1.13-.61a1.89,1.89,0,0,0-1.92,2,1.9,1.9,0,0,0,1.94,2,2.18,2.18,0,0,0,1.59-.7l.32.51a2.63,2.63,0,0,1-1.94.8,2.5,2.5,0,0,1-2.6-2.59A2.53,2.53,0,0,1,73.06,11Z"/><path class="cls-1" d="M78.12,11.87a.2.2,0,0,0-.21-.22h-.42v-.58h.7c.42,0,.6.18.6.6v3.56c0,.15.08.21.22.21h.41V16h-.7c-.42,0-.6-.17-.6-.6Zm0-2.76h.65V10H78.1Z"/><path class="cls-1" d="M84.66,11a2.59,2.59,0,1,1,0,5.18,2.58,2.58,0,0,1-2.62-2.62A2.56,2.56,0,0,1,84.66,11Zm0,4.58a1.94,1.94,0,0,0,1.91-2,1.92,1.92,0,1,0-3.84,0A2,2,0,0,0,84.67,15.54Z"/><path class="cls-1" d="M90.47,11.87a.2.2,0,0,0-.22-.22h-.41v-.58h.7c.42,0,.6.18.6.58v2.4c0,.77.12,1.46,1.08,1.46A1.92,1.92,0,0,0,94,13.45V11.07h.67v4.16c0,.15.08.21.22.21h.41V16h-.68c-.41,0-.6-.17-.6-.55v-.22a3.24,3.24,0,0,1,0-.36h0a2.11,2.11,0,0,1-1.93,1.25c-1.17,0-1.66-.63-1.66-1.92Z"/><path class="cls-1" d="M98.2,14.81a2,2,0,0,0,1.52.75c.56,0,1-.26,1-.79,0-1.08-2.78-.88-2.78-2.48,0-.89.77-1.33,1.76-1.33.51,0,1.51.19,1.51.89v.42h-.63V12c0-.37-.53-.5-.86-.5-.69,0-1.1.23-1.1.71,0,1.12,2.78.86,2.78,2.5,0,.83-.75,1.39-1.74,1.39a2.37,2.37,0,0,1-1.89-.86Z"/><path class="cls-1" d="M41.59,23.44h-.65v-.56h.66V21.51h.66v1.37H43.5v.56H42.26V26c0,1.16.74,1.31,1.11,1.31a1.17,1.17,0,0,0,.23,0v.6a2,2,0,0,1-.29,0A1.61,1.61,0,0,1,41.59,26Z"/><path class="cls-1" d="M46.78,23.67a.2.2,0,0,0-.22-.21h-.41v-.58h.69c.43,0,.6.17.6.58v2.39c0,.78.13,1.47,1.09,1.47a1.93,1.93,0,0,0,1.82-2.07V22.88H51V27a.19.19,0,0,0,.21.22h.42v.58H51c-.42,0-.6-.18-.6-.55v-.23a2.94,2.94,0,0,1,0-.35h0A2.12,2.12,0,0,1,48.44,28c-1.17,0-1.66-.63-1.66-1.92Z"/><path class="cls-1" d="M54.69,23.67a.19.19,0,0,0-.21-.21h-.42v-.58h.69c.42,0,.6.16.6.56v.33a3.63,3.63,0,0,1,0,.38h0a1.69,1.69,0,0,1,1.57-1.32,1.2,1.2,0,0,1,.26,0v.66a1.5,1.5,0,0,0-.24,0,1.59,1.59,0,0,0-1.44,1.28,3.19,3.19,0,0,0-.14,1v2.09h-.67Z"/><path class="cls-1" d="M60.28,23.44h-.65v-.56h.66V21.51H61v1.37h1.24v.56H61V26c0,1.16.74,1.31,1.11,1.31a1.17,1.17,0,0,0,.23,0v.6a2,2,0,0,1-.29,0A1.61,1.61,0,0,1,60.28,26Z"/><path class="cls-1" d="M65.41,21.71a.2.2,0,0,0-.22-.22h-.41v-.58h.69c.43,0,.6.18.6.6V27a.2.2,0,0,0,.22.22h.41v.58H66c-.43,0-.6-.18-.6-.6Z"/><path class="cls-1" d="M71.77,22.76A2.07,2.07,0,0,1,73.85,25c0,.12,0,.34,0,.34H70a1.88,1.88,0,0,0,1.92,2,2.2,2.2,0,0,0,1.48-.61l.33.5a2.81,2.81,0,0,1-1.84.71,2.51,2.51,0,0,1-2.59-2.59A2.42,2.42,0,0,1,71.77,22.76Zm1.39,2.09a1.41,1.41,0,0,0-1.4-1.53,1.7,1.7,0,0,0-1.7,1.53Z"/><path class="cls-1" d="M77,26.62a2,2,0,0,0,1.53.75c.55,0,1-.27,1-.79,0-1.08-2.77-.89-2.77-2.48,0-.9.77-1.34,1.76-1.34.5,0,1.51.2,1.51.9v.42H79.4v-.24c0-.36-.54-.5-.86-.5-.69,0-1.1.24-1.1.72,0,1.11,2.77.86,2.77,2.5,0,.82-.75,1.39-1.73,1.39a2.37,2.37,0,0,1-1.9-.87Z"/></g></g></svg>